<svg xmlns="http://www.w3.org/2000/svg" width="186" height="51" fill="none" viewBox="0 0 186 51"><path fill="#000814" d="M0 50.1836C1.79866 50.135 3.35425 50.135 5.1043 50.1836V49.6003C3.71885 49.503 3.03827 48.628 3.03827 46.562V36.3777L14.1705 50.1836H14.8997V36.3048C14.8997 34.4332 15.6532 33.9228 16.9657 33.7526V33.1693C15.483 33.2179 13.9274 33.2179 11.8614 33.1693V33.7526C13.4899 33.8498 14.1705 34.7249 14.1705 36.7909V44.2772L5.27444 33.1693C4.22928 33.1936 1.75004 33.2179 0 33.1693V33.7526C1.62851 33.8498 2.30909 34.7249 2.30909 36.7909V47.0481C2.30909 48.9197 1.5556 49.4301 0 49.6003V50.1836Z"/><path fill="#000814" d="M18.8183 50.1836C20.3982 50.135 21.6621 50.135 22.9504 50.135C24.0441 50.135 25.4053 50.135 27.1796 50.1836V49.6003C25.5511 49.503 24.8705 48.628 24.8705 46.562V36.3048C24.8705 34.4332 25.624 33.9228 27.1796 33.7526V33.1693C25.5997 33.2179 24.3358 33.2179 23.0476 33.2179C21.9538 33.2179 20.5927 33.2179 18.8183 33.1693V33.7526C20.4468 33.8498 21.1274 34.7249 21.1274 36.7909V47.0481C21.1274 48.9197 20.3739 49.4301 18.8183 49.6003V50.1836Z"/><path fill="#000814" d="M32.8578 50.1836C34.4377 50.135 35.7016 50.135 36.9898 50.135C38.0836 50.135 39.4448 50.135 41.2191 50.1836V49.6003C39.5906 49.503 38.91 48.628 38.91 46.562V42.673L42.5073 36.3048C43.6983 34.1901 44.2574 33.8985 45.3025 33.7526V33.1693C42.483 33.2422 42.9935 33.2422 39.9066 33.1693V33.7526C41.9969 33.9957 42.483 34.9679 41.4865 36.7909L38.6913 41.9195L35.4342 36.3048C34.4377 34.579 35.1426 33.9714 37.3544 33.7526V33.1693C33.6842 33.2422 31.4966 33.2422 28.4097 33.1693V33.7526C29.4063 33.8498 30.014 34.2874 31.5452 36.7909L35.1669 42.7459V47.0481C35.1669 48.9197 34.4134 49.4301 32.8578 49.6003V50.1836Z"/><path fill="#000814" d="M46.533 50.1836C48.1129 50.135 49.3769 50.135 50.6651 50.135C51.7589 50.135 53.12 50.135 54.8944 50.1836V49.6003C53.2659 49.503 52.5853 48.628 52.5853 46.562V36.3048C52.5853 34.4332 53.3388 33.9228 54.8944 33.7526V33.1693C53.3145 33.2179 52.0505 33.2179 50.7623 33.2179C49.6685 33.2179 48.3074 33.2179 46.533 33.1693V33.7526C48.1616 33.8498 48.8421 34.7249 48.8421 36.7909V47.0481C48.8421 48.9197 48.0886 49.4301 46.533 49.6003V50.1836Z"/><path fill="#000814" d="M62.7118 50.1836C64.5105 50.135 66.0661 50.135 67.8161 50.1836V49.6003C66.4307 49.503 65.7258 48.628 65.7501 46.562L65.896 36.4263L71.4864 50.1836H72.1913L77.7331 35.4784L77.8789 47.0481C77.9032 48.9197 77.1254 49.4301 75.5698 49.6003V50.1836C77.1497 50.135 78.4136 50.135 79.7019 50.135C80.7956 50.135 82.1568 50.135 83.9311 50.1836V49.6003C82.3026 49.503 81.6464 48.628 81.6221 46.562L81.4519 36.3048C81.4276 34.4332 82.2054 33.9228 83.761 33.7526V33.1693C82.1811 33.2179 80.9172 33.2179 79.629 33.2179C78.7782 33.2179 79.7262 33.2179 77.9518 33.1693L73.3093 45.3953L68.3995 33.1693C67.3543 33.1936 64.632 33.2179 62.882 33.1693V33.7526C64.5105 33.8498 65.2154 34.7249 65.1911 36.7909L65.0209 47.0481C64.9966 48.9197 64.2674 49.4301 62.7118 49.6003V50.1836Z"/><path fill="#000814" d="M85.5331 50.1836C88.3526 50.1107 87.8422 50.1107 91.1721 50.1836V49.6003C88.8387 49.3572 88.4984 48.4336 89.2519 46.562L89.5922 45.7356H96.1063L96.6167 47.0481C97.3216 48.7738 96.9084 49.3815 94.6965 49.6003V50.1836C98.3667 50.1107 100.554 50.1107 103.398 50.1836V49.6003C102.037 49.4301 101.502 48.8225 100.506 46.562L94.5993 33.1693H94.0159L88.3283 47.0481C87.5748 48.8954 87.0157 49.4058 85.5331 49.6003V50.1836ZM89.8353 45.1036L92.8492 37.593L95.8389 45.1036H89.8353Z"/><path fill="#000814" d="M104.502 50.1836C106.082 50.135 107.346 50.135 108.634 50.135C109.728 50.135 111.089 50.135 112.864 50.1836V49.6003C111.235 49.503 110.555 48.628 110.555 46.562V43.9126L111.77 42.5272C113.325 43.4022 115.1 45.7356 116.388 50.1836H122.781V49.6003C119.548 49.6003 118.357 41.4091 114.201 39.6833L117.117 36.3048C118.697 34.4818 119.451 33.9471 121.347 33.7526V33.1693C118.405 33.2422 118.916 33.2422 115.221 33.1693V33.7526C117.579 33.9957 117.433 34.9679 115.829 36.7909L110.555 42.8431V36.3048C110.555 34.4332 111.308 33.9228 112.864 33.7526V33.1693C111.284 33.2179 110.02 33.2179 108.732 33.2179C107.638 33.2179 106.277 33.2179 104.502 33.1693V33.7526C106.131 33.8498 106.811 34.7249 106.811 36.7909V47.0481C106.811 48.9197 106.058 49.4301 104.502 49.6003V50.1836Z"/><path fill="#000814" d="M124.009 50.1836C125.589 50.135 126.853 50.135 128.141 50.135C129.235 50.135 130.596 50.135 132.37 50.1836V49.6003C130.742 49.503 130.061 48.628 130.061 46.562V36.3048C130.061 34.4332 130.815 33.9228 132.37 33.7526V33.1693C130.79 33.2179 129.526 33.2179 128.238 33.2179C127.144 33.2179 125.783 33.2179 124.009 33.1693V33.7526C125.638 33.8498 126.318 34.7249 126.318 36.7909V47.0481C126.318 48.9197 125.565 49.4301 124.009 49.6003V50.1836Z"/><path fill="#000814" d="M134.33 50.1836C136.128 50.135 137.684 50.135 139.434 50.1836V49.6003C138.048 49.503 137.368 48.628 137.368 46.562V36.3777L148.5 50.1836H149.229V36.3048C149.229 34.4332 149.983 33.9228 151.295 33.7526V33.1693C149.813 33.2179 148.257 33.2179 146.191 33.1693V33.7526C147.82 33.8498 148.5 34.7249 148.5 36.7909V44.2772L139.604 33.1693C138.559 33.1936 136.08 33.2179 134.33 33.1693V33.7526C135.958 33.8498 136.639 34.7249 136.639 36.7909V47.0481C136.639 48.9197 135.885 49.4301 134.33 49.6003V50.1836Z"/><path fill="#000814" d="M153.148 50.1836C154.728 50.135 155.992 50.135 157.28 50.135C158.495 50.135 159.881 50.1836 161.388 50.1836C166.492 50.1836 169.871 46.9023 169.871 41.482C169.871 36.2075 166.468 33.0234 161.898 33.0234C158.495 33.0234 157.62 33.2422 153.148 33.1693V33.7526C154.704 33.9228 155.457 34.4332 155.457 36.3048V47.0481C155.457 48.9197 154.704 49.4301 153.148 49.6003V50.1836ZM161.801 49.5516C160.27 49.5516 159.2 48.7495 159.2 46.562V33.8985C159.711 33.7769 160.513 33.704 160.926 33.704C163.77 33.704 165.69 35.843 165.69 42.2841C165.69 47.4127 163.697 49.5516 161.801 49.5516Z"/><path fill="#000814" d="M171.586 50.1836C173.361 50.1836 174.041 50.1107 175.816 50.1107C178.489 50.1107 182.719 50.1836 185.368 50.1836C185.49 48.5551 185.611 47.0724 186 44.5689L185.417 44.496C184.201 48.3606 182.767 49.6003 180.434 49.6003C178.368 49.6003 177.639 48.8468 177.639 46.562V40.8743H178.295C181.163 40.8743 181.892 41.5792 182.062 42.7216H182.646C182.573 41.3605 182.573 39.975 182.646 38.6139H182.062C181.868 39.659 181.066 40.2424 178.538 40.2424H177.639V33.9714C178.319 33.8255 178.903 33.7526 180.191 33.7526C182.451 33.7526 183.594 34.5547 184.76 37.9819L185.344 37.909C185.149 36.2805 185.028 34.652 184.931 33.0234C177.493 33.0234 175.816 33.2908 171.586 33.1693V33.7526C173.142 33.8498 173.896 34.5061 173.896 36.3048V47.0481C173.896 48.8225 173.264 49.3815 171.586 49.6003V50.1836Z"/><path fill="#000814" d="M66.5557 39.2654C66.6669 39.2654 66.7893 39.1986 66.8338 39.1096L76.6029 20.3948H84.525C84.7141 20.3948 84.8476 20.2391 84.8476 20.0722C84.8476 19.9943 84.8254 19.9053 84.7809 19.8274C84.6585 19.5604 84.3692 19.3267 84.1355 19.3267H77.1592L86.7614 0.956878C86.8059 0.890119 86.8281 0.801107 86.8281 0.723222C86.8281 0.311542 86.1383 0 85.7266 0C85.5931 0 85.4485 0.0333795 85.3817 0.122391C79.8518 6.58688 72.8421 13.1849 66.8005 19.3267H66.5334C68.5139 16.1668 69.4041 13.6077 69.4041 11.6939C69.4041 10.2475 68.8811 9.13484 67.991 8.35599C66.8672 7.35461 64.9312 6.92067 62.6058 6.92067C53.827 6.92067 39.1178 13.0069 39.1178 17.2683C39.1178 20.3281 45.471 20.3948 47.4515 20.3948H64.4305C62.7949 22.7203 60.8589 25.0568 58.8562 27.3155C58.8005 27.3712 58.7783 27.4602 58.7783 27.5381C58.7783 27.6827 58.8562 27.883 58.9897 28.0165C59.0898 28.1389 59.3012 28.2835 59.4792 28.2835C59.5571 28.2835 59.6573 28.2613 59.724 28.1945C62.4278 25.6577 65.0759 22.9762 67.6795 20.3948H75.0341L65.8881 38.353C65.8658 38.3975 65.8547 38.4643 65.8547 38.531V38.5867L65.8992 38.7424L65.966 38.8648C66.0105 38.9538 66.0772 39.0317 66.1551 39.0873C66.2886 39.1986 66.4444 39.2654 66.5557 39.2654ZM75.5793 19.3267H68.7587C73.4875 14.6536 78.372 9.81356 82.7225 5.30733L75.5793 19.3267ZM66.0772 20.0611L65.8436 20.3948H65.7434L66.0772 20.0611ZM65.1649 19.3267H46.9063C45.56 19.3267 40.4752 19.2933 40.4752 17.7467C40.4752 14.075 54.9285 7.93318 63.0508 7.93318C64.9868 7.93318 66.5334 8.27811 67.4458 9.09034C68.0911 9.65779 68.4472 10.4589 68.4472 11.5493C68.4472 13.3407 67.4681 15.8775 65.1649 19.3267Z"/><path fill="#000814" d="M76.169 40.7897C76.2802 40.7897 76.3692 40.7118 76.4583 40.5338L84.3469 23.666C86.0938 21.4519 87.7961 19.5937 89.1202 18.6257C89.543 18.3142 90.2773 17.9136 90.7669 17.9136C91.0896 17.9136 91.3121 18.0694 91.3121 18.5145C91.3121 18.6257 91.2899 18.7704 91.2565 18.9373C91.1341 19.527 90.8559 20.1167 90.4331 20.8177C87.7294 21.6521 85.938 22.8204 84.97 23.8218C84.5361 24.2557 84.2579 24.6785 84.1355 25.0012C84.0688 25.1792 84.0354 25.3461 84.0354 25.4908C84.0354 26.1695 84.6028 26.6257 85.2704 26.6257C85.4485 26.6257 85.6376 26.5923 85.8156 26.5255C87.9074 25.7912 90.0548 23.7439 91.2676 21.8302C92.8364 21.374 94.7057 21.0291 96.9199 20.9178C97.0868 20.9067 97.1758 20.7954 97.1758 20.6285C97.1758 20.5395 97.1424 20.4505 97.0979 20.3503C96.9532 20.0499 96.6417 19.8274 96.3969 19.8274C94.7613 19.9164 93.3149 20.1167 92.0242 20.3948C92.1466 20.1167 92.2356 19.8608 92.2801 19.5937C92.3246 19.3823 92.3469 19.1709 92.3469 18.9707C92.3469 18.4811 92.2134 18.0472 91.9129 17.6577C91.4901 17.1125 91.0339 16.9011 90.5778 16.9011C89.9769 16.9011 89.3539 17.2572 88.7419 17.6911C87.9074 18.3253 86.8949 19.2822 85.8268 20.4839L87.5402 16.8455C87.5736 16.7676 87.5959 16.6897 87.5959 16.623C87.5959 16.1779 86.9394 15.8775 86.4832 15.8775C86.2941 15.8775 86.1383 15.922 86.0938 16.0333L81.7656 25.6911C81.3984 26.214 81.0312 26.7369 80.6863 27.271C77.9603 31.3767 75.6794 35.716 75.29 38.2417C75.2677 38.353 75.2677 38.4754 75.2677 38.5978C75.2677 39.5547 75.7573 40.7897 76.169 40.7897ZM85.3372 25.3906C85.8268 24.6229 87.1397 23.5214 89.0201 22.6647C87.9519 23.8329 86.6279 24.8677 85.3372 25.3906ZM76.0243 38.531C76.3359 36.6395 77.6933 33.7578 79.518 30.7314L76.0243 38.531Z"/><path fill="#000814" d="M97.4428 24.8566C97.5875 24.8566 97.7321 24.8454 97.8656 24.8009C99.134 24.3781 100.514 22.253 100.77 20.9734C101.504 21.3183 102.828 21.6855 103.885 21.6855C104.23 21.6855 104.542 21.641 104.809 21.552C104.931 21.5075 104.987 21.4074 104.987 21.285C104.987 20.9623 104.597 20.4727 104.23 20.4727C104.197 20.4727 104.152 20.4727 104.119 20.4839C103.841 20.5284 103.573 20.5617 103.306 20.5617C102.427 20.5617 101.571 20.317 100.725 19.9943C100.647 19.7384 100.48 19.4714 100.247 19.3156C100.358 19.0263 100.414 18.6814 100.414 18.3476C100.414 18.2252 100.414 18.1028 100.391 17.9915C100.391 17.502 99.746 17.068 99.3566 16.979C99.2119 16.9345 99.0561 16.9123 98.9004 16.9123H98.8781C98.2884 16.9123 97.721 17.2794 97.2091 17.8358C96.7641 18.3587 96.3302 19.0597 95.9964 19.794C95.6626 20.5395 95.4512 21.3295 95.3955 22.0416C95.3844 22.1751 95.3844 22.3086 95.3844 22.4421C95.3844 23.488 95.7516 24.3336 96.6194 24.6897C96.8642 24.7898 97.1535 24.8566 97.4428 24.8566ZM97.0089 23.7662C96.7307 23.7662 96.6194 23.5214 96.6194 23.0986V22.9651C96.6751 21.7634 98.2662 17.9581 99.3232 17.9581H99.3788C99.4122 17.9693 99.4233 18.0027 99.4233 18.0583C99.4233 18.3253 99.0895 19.0708 98.9783 19.3156C98.8892 19.3935 98.8559 19.4714 98.8559 19.5604C98.7669 19.7384 98.6667 19.9164 98.5443 20.0722C98.4998 20.1278 98.4887 20.1946 98.4887 20.2613C98.4887 20.5951 98.9115 21.0513 99.2342 21.0513C99.2898 21.0513 99.3454 21.0402 99.3899 21.0068L99.3566 21.0958C98.8892 22.1306 98.0881 23.31 97.3872 23.666C97.2425 23.7328 97.1201 23.7662 97.0089 23.7662Z"/><path fill="#000814" d="M104.241 25.3573C104.475 25.3573 104.72 25.3016 104.964 25.2015C106.133 24.6897 106.522 23.9998 106.522 23.2432C106.522 22.9762 106.466 22.698 106.389 22.4087C108.002 21.9192 110.16 21.4519 112.775 21.0847C112.897 21.0736 112.964 20.9846 112.964 20.851C112.964 20.7731 112.942 20.673 112.886 20.5729C112.742 20.3281 112.497 20.1501 112.297 20.1501H112.274C109.76 20.5061 107.646 20.9623 106.044 21.4296C105.866 21.0068 105.676 20.5951 105.51 20.1723C105.42 19.9053 105.354 19.6494 105.354 19.4268C105.354 19.1264 105.454 18.8816 105.732 18.6702C106.466 18.1473 107.323 18.0917 108.158 17.8691C108.28 17.9693 108.414 18.0249 108.525 18.0249C108.636 18.0249 108.736 17.9693 108.803 17.8358C108.859 17.7134 108.881 17.591 108.881 17.4908C108.881 17.2906 108.792 17.1348 108.592 16.979C108.302 16.6563 107.846 16.5228 107.334 16.5228C106.433 16.5228 105.354 16.9345 104.786 17.3462C104.33 17.68 104.163 18.0917 104.163 18.5479C104.163 18.9818 104.308 19.4602 104.508 19.9609C104.72 20.5395 105.02 21.0958 105.22 21.6855C104.052 22.0749 103.217 22.4978 102.784 22.8649C102.494 23.1208 102.327 23.3322 102.327 23.577C102.327 23.6772 102.35 23.7773 102.394 23.8886C102.772 24.8232 103.473 25.3573 104.241 25.3573ZM103.785 24.2001C103.518 24.2001 103.34 24.1222 103.34 23.9665C103.34 23.9108 103.373 23.8441 103.429 23.7662C103.674 23.4658 104.352 23.0986 105.398 22.7425C105.331 23.7773 104.363 24.2001 103.785 24.2001Z"/><path fill="#000814" d="M103.318 41.5686C102.984 41.5686 102.561 41.0901 102.561 40.7452C102.561 40.6896 102.572 40.6339 102.583 40.5894L114.377 15.7106L105.131 15.8552C105.176 15.9554 105.209 16.1 105.209 16.2113C105.209 16.3226 105.176 16.4116 105.109 16.4116C105.087 16.4116 105.053 16.4004 105.02 16.3671C104.497 15.9665 102.639 15.8775 100.937 15.8775C99.5235 15.8775 98.2105 15.9443 97.8322 15.9443H97.81C97.3649 15.9443 97.109 15.6105 97.109 15.2767C97.109 14.9206 97.3983 14.5646 98.0436 14.5646L114.867 14.6647L115.579 13.1404C115.635 13.0402 115.779 12.9846 115.968 12.9846C116.425 12.9846 117.114 13.2962 117.114 13.7523C117.114 13.8302 117.092 13.9081 117.048 13.986L116.714 14.6647L129.398 14.7426C129.543 14.7426 129.609 14.865 129.609 15.0096C129.609 15.221 129.476 15.4769 129.265 15.4769L116.224 15.6772L103.629 41.346C103.551 41.5018 103.44 41.5686 103.318 41.5686Z"/><path fill="#000814" d="M114.644 31.9219C115.857 31.9219 117.893 29.5519 118.45 28.9622C120.107 27.1709 122.322 24.4449 125.237 20.5951C125.27 20.5506 125.281 20.5061 125.281 20.4394C125.281 20.2947 125.192 20.0944 125.036 19.9498C124.903 19.8163 124.747 19.7495 124.614 19.7495C124.547 19.7495 124.48 19.7718 124.436 19.8274C121.532 23.6772 119.317 26.3809 117.682 28.1611C117.604 28.2613 115.223 30.8537 114.622 30.8537C114.544 30.8537 114.5 30.8092 114.489 30.7091V30.6312C114.489 30.3642 114.589 29.8857 114.678 29.4407C115.29 26.7703 116.614 23.7662 117.726 21.2182C118.639 20.851 120.33 18.6369 120.909 17.8358C122.411 15.8107 128.397 6.87617 128.397 3.71625C128.397 3.47146 128.363 3.26006 128.285 3.09316C128.063 2.61472 127.484 2.19192 126.928 2.19192H126.906C126.85 2.19192 126.794 2.19192 126.728 2.20304C126.405 2.2698 126.016 2.51459 125.648 3.1488C122.021 8.37824 115.134 22.3197 113.665 28.7508C113.543 29.2849 113.476 29.7633 113.476 30.175C113.476 31.0206 113.743 31.6103 114.333 31.8663C114.422 31.9108 114.533 31.9219 114.644 31.9219ZM119.195 17.9804C119.963 16.3337 125.982 3.58273 127.395 3.30457C127.418 3.29344 127.44 3.29344 127.451 3.29344H127.462C127.584 3.29344 127.64 3.38245 127.64 3.53822C127.64 5.35184 120.341 16.5562 119.195 17.9804Z"/><path fill="#000814" d="M125.615 25.6132C125.782 25.6132 125.971 25.602 126.16 25.5798C128.719 25.2349 133.715 22.2864 135.618 20.6396C135.685 20.584 135.718 20.5061 135.718 20.4171C135.718 20.1501 135.406 19.8385 135.15 19.8385C135.084 19.8385 135.028 19.8497 134.984 19.8942C133.137 21.4074 128.463 23.9776 126.038 24.4338C125.793 24.4783 125.582 24.5005 125.404 24.5005C124.58 24.5005 124.269 24.0777 124.269 23.4769C124.269 23.0096 124.447 22.4421 124.725 21.8635C124.947 21.9192 125.203 21.9414 125.459 21.9414C126.972 21.9414 128.953 21.1181 130.01 20.4171C131.112 19.6828 131.634 18.8149 131.701 18.0805L131.712 17.9248C131.712 17.1682 131.189 16.3671 130.488 16.1112C130.299 16.0333 130.099 15.9999 129.877 15.9999H129.865C127.451 15.9999 123.279 20.0388 123.279 23.0541C123.279 23.2655 123.301 23.4658 123.345 23.666C123.423 24.0443 123.701 24.6563 123.957 24.9567C124.369 25.424 124.936 25.6132 125.615 25.6132ZM125.437 20.6619C125.927 20.0054 128.486 17.1014 130.155 17.0903C130.288 17.0903 130.422 17.1125 130.555 17.157C130.5 17.9581 129.609 18.7036 128.998 19.1042C127.551 20.0833 126.283 20.4839 125.437 20.6619Z"/></svg>